<svg width="420" height="260" viewBox="0 0 420 260" fill="none" xmlns="http://www.w3.org/2000/svg">
  <rect width="420" height="260" rx="24" fill="url(#paint0_radial)" />
  <rect x="20" y="20" width="380" height="220" rx="18" fill="#0F172A" fill-opacity="0.72" stroke="#0EA5E9" stroke-opacity="0.35" stroke-width="2"/>
  <rect x="36" y="36" width="348" height="60" rx="12" fill="url(#paint1_linear)" opacity="0.92"/>
  <rect x="36" y="112" width="140" height="94" rx="12" fill="#111827" stroke="#4ADE80" stroke-opacity="0.4" stroke-width="2"/>
  <rect x="194" y="112" width="190" height="94" rx="12" fill="#111827" stroke="#818CF8" stroke-opacity="0.4" stroke-width="2"/>
  <rect x="50" y="124" width="44" height="44" rx="10" fill="#0EA5E9" fill-opacity="0.18" stroke="#22D3EE" stroke-opacity="0.8" stroke-width="2"/>
  <rect x="106" y="124" width="44" height="44" rx="10" fill="#6EE7B7" fill-opacity="0.18" stroke="#34D399" stroke-opacity="0.8" stroke-width="2"/>
  <rect x="50" y="176" width="100" height="18" rx="6" fill="#1F2937"/>
  <rect x="202" y="124" width="88" height="14" rx="6" fill="#1F2937"/>
  <rect x="202" y="146" width="156" height="14" rx="6" fill="#1F2937"/>
  <rect x="202" y="168" width="132" height="14" rx="6" fill="#1F2937"/>
  <rect x="202" y="190" width="96" height="14" rx="6" fill="#1F2937"/>
  <circle cx="70" cy="62" r="12" fill="#FDE68A" stroke="#FBBF24" stroke-width="3"/>
  <rect x="92" y="52" width="54" height="20" rx="6" fill="#0EA5E9" fill-opacity="0.22" stroke="#06B6D4" stroke-opacity="0.8" stroke-width="2"/>
  <rect x="156" y="52" width="74" height="20" rx="6" fill="#6366F1" fill-opacity="0.22" stroke="#8B5CF6" stroke-opacity="0.8" stroke-width="2"/>
  <rect x="250" y="52" width="60" height="20" rx="6" fill="#F472B6" fill-opacity="0.2" stroke="#F472B6" stroke-opacity="0.8" stroke-width="2"/>
  <rect x="322" y="52" width="56" height="20" rx="6" fill="#34D399" fill-opacity="0.2" stroke="#34D399" stroke-opacity="0.8" stroke-width="2"/>
  <path d="M72 96L72 112" stroke="#22D3EE" stroke-width="3" stroke-linecap="round" stroke-dasharray="6 6"/>
  <path d="M120 96L120 112" stroke="#34D399" stroke-width="3" stroke-linecap="round" stroke-dasharray="6 6"/>
  <path d="M170 96L170 112" stroke="#A5B4FC" stroke-width="3" stroke-linecap="round" stroke-dasharray="6 6"/>
  <circle cx="260" cy="210" r="18" fill="#0EA5E9" fill-opacity="0.22" stroke="#06B6D4" stroke-width="3"/>
  <path d="M260 200L260 210L268 214" stroke="#06B6D4" stroke-width="3" stroke-linecap="round" stroke-linejoin="round"/>
  <rect x="288" y="200" width="70" height="22" rx="9" fill="#4B5563"/>
  <rect x="288" y="228" width="52" height="12" rx="6" fill="#111827"/>
  <circle cx="308" cy="234" r="4" fill="#22D3EE"/>
  <circle cx="322" cy="234" r="4" fill="#34D399"/>
  <circle cx="336" cy="234" r="4" fill="#F472B6"/>
  <defs>
    <radialGradient id="paint0_radial" cx="0" cy="0" r="1" gradientUnits="userSpaceOnUse" gradientTransform="translate(88 42) rotate(50) scale(412 242)">
      <stop stop-color="#0EA5E9" stop-opacity="0.22"/>
      <stop offset="0.5" stop-color="#7C3AED" stop-opacity="0.18"/>
      <stop offset="1" stop-color="#0F172A" stop-opacity="0.95"/>
    </radialGradient>
    <linearGradient id="paint1_linear" x1="36" y1="36" x2="384" y2="96" gradientUnits="userSpaceOnUse">
      <stop stop-color="#0EA5E9" stop-opacity="0.3"/>
      <stop offset="0.5" stop-color="#7C3AED" stop-opacity="0.35"/>
      <stop offset="1" stop-color="#22D3EE" stop-opacity="0.35"/>
    </linearGradient>
  </defs>
</svg>
