<svg width="420" height="260" viewBox="0 0 420 260" fill="none" xmlns="http://www.w3.org/2000/svg">
  <rect width="420" height="260" rx="26" fill="url(#paint0_radial)"/>
  <rect x="20" y="20" width="380" height="220" rx="18" fill="#0B1325" stroke="#34D399" stroke-opacity="0.35" stroke-width="2"/>
  <rect x="40" y="40" width="340" height="70" rx="14" fill="#0F1B33" stroke="#22D3EE" stroke-opacity="0.4" stroke-width="2"/>
  <rect x="40" y="126" width="152" height="96" rx="12" fill="#0F1B33" stroke="#34D399" stroke-opacity="0.45" stroke-width="2"/>
  <rect x="210" y="126" width="170" height="96" rx="12" fill="#0F1B33" stroke="#A78BFA" stroke-opacity="0.45" stroke-width="2"/>
  <circle cx="78" cy="72" r="16" fill="#34D399" fill-opacity="0.18" stroke="#34D399" stroke-width="2"/>
  <path d="M71 70.5C71 66.3579 74.3579 63 78.5 63C82.6421 63 86 66.3579 86 70.5C86 72.5107 85.1605 74.329 83.7855 75.6245C82.4709 76.8618 81.5 78.6038 81.5 80.5" stroke="#34D399" stroke-width="2" stroke-linecap="round"/>
  <path d="M90 78C90 74.6863 92.6863 72 96 72H110" stroke="#22D3EE" stroke-width="2.5" stroke-linecap="round" stroke-dasharray="6 6"/>
  <rect x="110" y="60" width="74" height="12" rx="6" fill="#111827"/>
  <rect x="110" y="78" width="118" height="12" rx="6" fill="#111827"/>
  <rect x="58" y="144" width="110" height="16" rx="7" fill="#111827"/>
  <rect x="58" y="168" width="110" height="16" rx="7" fill="#111827"/>
  <rect x="58" y="192" width="110" height="16" rx="7" fill="#111827"/>
  <circle cx="78" cy="152" r="5" fill="#22D3EE"/>
  <circle cx="78" cy="176" r="5" fill="#34D399"/>
  <circle cx="78" cy="200" r="5" fill="#A78BFA"/>
  <rect x="226" y="144" width="130" height="16" rx="7" fill="#111827"/>
  <rect x="226" y="168" width="102" height="16" rx="7" fill="#111827"/>
  <rect x="226" y="192" width="142" height="16" rx="7" fill="#111827"/>
  <rect x="226" y="216" width="92" height="12" rx="6" fill="#111827"/>
  <rect x="238" y="66" width="126" height="18" rx="8" fill="#111827"/>
  <rect x="238" y="48" width="84" height="10" rx="5" fill="#111827"/>
  <circle cx="340" cy="72" r="12" fill="#A78BFA" fill-opacity="0.2" stroke="#A78BFA" stroke-width="2"/>
  <path d="M334 72H346" stroke="#A78BFA" stroke-width="2" stroke-linecap="round"/>
  <path d="M340 66V78" stroke="#A78BFA" stroke-width="2" stroke-linecap="round"/>
  <defs>
    <radialGradient id="paint0_radial" cx="0" cy="0" r="1" gradientUnits="userSpaceOnUse" gradientTransform="translate(88 34) rotate(50) scale(410 260)">
      <stop stop-color="#0EA5E9" stop-opacity="0.18"/>
      <stop offset="0.6" stop-color="#1E293B" stop-opacity="0.9"/>
      <stop offset="1" stop-color="#0B1020" stop-opacity="0.95"/>
    </radialGradient>
  </defs>
</svg>
