<svg width="96" height="96" viewBox="0 0 96 96" fill="none" xmlns="http://www.w3.org/2000/svg">
  <rect width="96" height="96" rx="22" fill="#F6EEE6"/>
  <rect x="10" y="10" width="76" height="76" rx="18" stroke="#E1D1C6" stroke-width="1.5"/>
  <path
    d="M30 36C26 38 24 42 24 47C24 52 27 56 31 58C29 64 33 70 39 70C41 75 47 78 52 75C57 78 63 75 66 70C72 70 76 64 74 58C78 56 80 52 80 47C80 42 78 38 74 36C70 30 62 28 56 31C52 26 44 26 40 31C36 28 32 30 30 36Z"
    stroke="#1E140F"
    stroke-width="3"
    stroke-linecap="round"
    stroke-linejoin="round"
  />
  <path d="M48 34V70" stroke="#1E140F" stroke-width="2.5" stroke-linecap="round"/>
  <path d="M48 42H36" stroke="#1E140F" stroke-width="2" stroke-linecap="round"/>
  <path d="M48 42H60" stroke="#1E140F" stroke-width="2" stroke-linecap="round"/>
  <path d="M48 56H40" stroke="#1E140F" stroke-width="2" stroke-linecap="round"/>
  <path d="M48 56H56" stroke="#1E140F" stroke-width="2" stroke-linecap="round"/>
  <circle cx="36" cy="42" r="2.5" fill="#C9825B"/>
  <circle cx="60" cy="42" r="2.5" fill="#C9825B"/>
  <circle cx="40" cy="56" r="2.5" fill="#C9825B"/>
  <circle cx="56" cy="56" r="2.5" fill="#C9825B"/>
</svg>
